<svg width="87" height="87" viewBox="0 0 87 87" fill="none" xmlns="http://www.w3.org/2000/svg">
<g id="icons stop" clip-path="url(#clip0_1965_11234)">
<g id="&#208;&#168;&#208;&#176;&#209;&#128;_2">
<g id="Group">
<path id="Vector" d="M43.5002 79.5825C33.8649 79.5825 24.8061 75.8306 17.9874 69.012C11.1688 62.1934 7.41693 53.1345 7.41693 43.4993C7.41693 33.864 11.1688 24.8051 17.9874 17.9865C24.8061 11.1679 33.8649 7.41602 43.5002 7.41602C53.1354 7.41602 62.1943 11.1679 69.0129 17.9865C75.8316 24.8051 79.5834 33.864 79.5834 43.4993C79.5834 53.1345 75.8316 62.1934 69.0129 69.012C62.1943 75.8306 53.1354 79.5825 43.5002 79.5825Z" fill="white"/>
</g>
<g id="Group_2">
<path id="Vector_2" d="M29.1451 59.2139C28.3947 59.2139 27.7857 58.6049 27.7857 57.8545V29.1445C27.7857 28.3942 28.3947 27.7852 29.1451 27.7852H57.8551C58.6055 27.7852 59.2145 28.3942 59.2145 29.1445V57.8545C59.2145 58.6049 58.6055 59.2139 57.8551 59.2139H29.1451Z" fill="#111E60"/>
<path id="Vector_3" d="M57.8551 27.8392C58.5729 27.8392 59.1601 28.4265 59.1601 29.1442V57.8542C59.1601 58.572 58.5729 59.1592 57.8551 59.1592H29.1451C28.4274 59.1592 27.8401 58.572 27.8401 57.8542V29.1442C27.8401 28.4265 28.4274 27.8392 29.1451 27.8392H57.8551ZM57.8551 27.7305H29.1451C28.3621 27.7305 27.7314 28.3612 27.7314 29.1442V57.8542C27.7314 58.6372 28.3621 59.268 29.1451 59.268H57.8551C58.6381 59.268 59.2689 58.6372 59.2689 57.8542V29.1442C59.2689 28.3612 58.6381 27.7305 57.8551 27.7305Z" fill="#111E60"/>
</g>
</g>
</g>
<defs>
<clipPath id="clip0_1965_11234">
<rect width="87" height="87" fill="white"/>
</clipPath>
</defs>
</svg>
