<svg width="87" height="87" viewBox="0 0 87 87" fill="none" xmlns="http://www.w3.org/2000/svg">
<g id="icons play 1">
<g id="&#208;&#168;&#208;&#176;&#209;&#128;_1">
<g id="Group">
<path id="Vector" d="M43.5 79.5825C33.8647 79.5825 24.8059 75.8306 17.9872 69.012C11.1686 62.1934 7.41675 53.1345 7.41675 43.4993C7.41675 33.864 11.1686 24.8051 17.9872 17.9865C24.8059 11.1679 33.8647 7.41602 43.5 7.41602C53.1352 7.41602 62.1941 11.1679 69.0127 17.9865C75.8314 24.8051 79.5832 33.864 79.5832 43.4993C79.5832 53.1345 75.8314 62.1934 69.0127 69.012C62.1941 75.8198 53.1352 79.5825 43.5 79.5825Z" fill="white"/>
</g>
<g id="Group_2">
<path id="Vector_2" d="M59.1274 42.4994C59.8995 42.9453 59.8995 44.0654 59.1274 44.5113L46.4798 51.8193L33.8213 59.1164C33.0491 59.5623 32.0813 59.0077 32.0813 58.1159V43.4999V28.8948C32.0813 28.003 33.0491 27.4375 33.8213 27.8943L46.4689 35.2023L59.1274 42.4994Z" fill="#111E60"/>
</g>
</g>
</g>
</svg>
